<svg xmlns="http://www.w3.org/2000/svg" xmlns:xlink="http://www.w3.org/1999/xlink" width="2540" zoomAndPan="magnify" viewBox="0 0 1904.88 526.499984" height="702" preserveAspectRatio="xMidYMid meet" version="1.2"><defs><clipPath id="0cc60b04d7"><path d="M 138.234375 146.066406 L 439.714844 146.066406 L 439.714844 379.933594 L 138.234375 379.933594 Z M 138.234375 146.066406 "/></clipPath><clipPath id="f3f0c33832"><path d="M 27.144531 7.28125 L 539 7.28125 L 539 519 L 27.144531 519 Z M 27.144531 7.28125 "/></clipPath><clipPath id="c04870c645"><path d="M 1712 82 L 1877.886719 82 L 1877.886719 441 L 1712 441 Z M 1712 82 "/></clipPath></defs><g id="bced49378a"><g clip-rule="nonzero" clip-path="url(#0cc60b04d7)"><path style=" stroke:none;fill-rule:nonzero;fill:#171717;fill-opacity:1;" d="M 138.234375 146.066406 L 439.703125 146.066406 L 439.703125 379.933594 L 138.234375 379.933594 Z M 138.234375 146.066406 "/></g><g clip-rule="nonzero" clip-path="url(#f3f0c33832)"><path style=" stroke:none;fill-rule:nonzero;fill:#08ffdb;fill-opacity:1;" d="M 430.71875 7.503906 L 135.175781 7.503906 C 75.519531 7.503906 27.144531 55.902344 27.144531 115.597656 L 27.144531 410.730469 C 27.144531 470.425781 75.519531 518.824219 135.175781 518.824219 L 430.71875 518.824219 C 490.375 518.824219 538.75 470.425781 538.75 410.730469 L 538.75 115.597656 C 538.75 55.902344 490.375 7.503906 430.71875 7.503906 Z M 261.011719 278.394531 C 261.144531 287.714844 257.425781 296.816406 250.910156 303.339844 L 205.683594 348.632812 C 199.253906 355.066406 190.945312 358.480469 182.371094 358.480469 C 178.039062 358.480469 173.667969 357.605469 169.425781 355.851562 C 156.742188 350.601562 148.867188 338.785156 148.867188 325.042969 L 148.867188 202.027344 C 148.867188 188.285156 156.742188 176.46875 169.46875 171.21875 C 182.152344 165.96875 196.0625 168.769531 205.726562 178.484375 L 250.910156 223.691406 C 257.425781 230.210938 261.144531 239.3125 261.011719 248.632812 C 260.96875 253.535156 260.925781 258.480469 260.925781 263.515625 C 260.925781 268.546875 260.925781 273.492188 261.011719 278.394531 Z M 417.246094 325.042969 C 417.246094 338.785156 409.371094 350.601562 396.6875 355.851562 C 392.445312 357.605469 388.027344 358.480469 383.742188 358.480469 C 375.167969 358.480469 366.859375 355.109375 360.429688 348.632812 L 315.203125 303.339844 C 308.6875 296.816406 305.011719 287.714844 305.101562 278.394531 C 305.144531 273.492188 305.1875 268.546875 305.1875 263.515625 C 305.1875 258.480469 305.1875 253.535156 305.101562 248.632812 C 304.96875 239.3125 308.6875 230.210938 315.203125 223.691406 L 360.386719 178.484375 C 370.050781 168.769531 383.960938 165.96875 396.644531 171.21875 C 409.371094 176.46875 417.246094 188.285156 417.246094 202.027344 Z M 417.246094 325.042969 "/></g><path style=" stroke:none;fill-rule:nonzero;fill:#ffffff;fill-opacity:1;" d="M 831.710938 235.988281 L 768.246094 235.988281 L 768.246094 358.875 C 768.246094 369.464844 770.605469 377.035156 775.417969 381.671875 C 780.1875 386.269531 787.273438 388.851562 796.675781 389.332031 C 806.035156 389.855469 817.714844 389.769531 831.710938 389.070312 L 831.710938 438.738281 C 789.414062 443.859375 759.058594 440.183594 740.601562 427.710938 C 722.1875 415.238281 712.960938 392.308594 712.960938 358.828125 L 712.960938 235.945312 L 665.898438 235.945312 L 665.898438 182.683594 L 712.960938 182.683594 L 712.960938 82.511719 L 768.246094 82.511719 L 768.246094 182.683594 L 831.710938 182.683594 Z M 831.710938 235.988281 "/><path style=" stroke:none;fill-rule:nonzero;fill:#ffffff;fill-opacity:1;" d="M 1727.121094 235.988281 L 1663.65625 235.988281 L 1663.65625 358.875 C 1663.65625 369.464844 1666.019531 377.035156 1670.828125 381.671875 C 1675.597656 386.269531 1682.683594 388.851562 1692.085938 389.332031 C 1701.445312 389.855469 1713.125 389.769531 1727.121094 389.070312 L 1727.121094 438.738281 C 1684.824219 443.859375 1654.472656 440.183594 1636.011719 427.710938 C 1617.597656 415.238281 1608.371094 392.308594 1608.371094 358.828125 L 1608.371094 235.945312 L 1561.308594 235.945312 L 1561.308594 182.683594 L 1608.371094 182.683594 L 1608.371094 82.511719 L 1663.65625 82.511719 L 1663.65625 182.683594 L 1727.121094 182.683594 Z M 1727.121094 235.988281 "/><g clip-rule="nonzero" clip-path="url(#c04870c645)"><path style=" stroke:none;fill-rule:nonzero;fill:#ffffff;fill-opacity:1;" d="M 1877.886719 235.988281 L 1814.421875 235.988281 L 1814.421875 358.875 C 1814.421875 369.464844 1816.785156 377.035156 1821.59375 381.671875 C 1826.363281 386.269531 1833.449219 388.851562 1842.851562 389.332031 C 1852.210938 389.855469 1863.890625 389.769531 1877.886719 389.070312 L 1877.886719 438.738281 C 1835.589844 443.859375 1805.238281 440.183594 1786.777344 427.710938 C 1768.367188 415.238281 1759.136719 392.308594 1759.136719 358.828125 L 1759.136719 235.945312 L 1712.074219 235.945312 L 1712.074219 182.683594 L 1759.136719 182.683594 L 1759.136719 82.511719 L 1814.421875 82.511719 L 1814.421875 182.683594 L 1877.886719 182.683594 Z M 1877.886719 235.988281 "/></g><path style=" stroke:none;fill-rule:nonzero;fill:#ffffff;fill-opacity:1;" d="M 916.519531 227.980469 C 930.515625 196.25 956.757812 180.363281 995.335938 180.363281 L 995.335938 240.277344 C 974.164062 238.917969 955.75 243.953125 940.050781 255.375 C 924.347656 266.796875 916.519531 285.65625 916.519531 311.960938 L 916.519531 440.972656 L 861.234375 440.972656 L 861.234375 184.960938 L 916.519531 184.960938 Z M 916.519531 227.980469 "/><path style=" stroke:none;fill-rule:nonzero;fill:#ffffff;fill-opacity:1;" d="M 1137.308594 443.683594 C 1099.78125 443.683594 1067.898438 430.730469 1041.609375 404.78125 C 1015.324219 378.828125 1002.203125 346.925781 1002.203125 309.027344 C 1002.203125 271.128906 1015.324219 239.226562 1041.609375 213.273438 C 1067.894531 187.324219 1099.78125 174.371094 1137.308594 174.371094 C 1174.835938 174.371094 1207.160156 187.367188 1233.269531 213.273438 C 1259.382812 239.226562 1272.417969 271.128906 1272.417969 309.027344 C 1272.417969 346.925781 1259.382812 378.828125 1233.269531 404.78125 C 1207.160156 430.730469 1175.1875 443.683594 1137.308594 443.683594 Z M 1080.492188 366.882812 C 1095.84375 382.242188 1114.785156 389.902344 1137.308594 389.902344 C 1159.835938 389.902344 1178.773438 382.242188 1194.125 366.882812 C 1209.476562 351.519531 1217.132812 332.222656 1217.132812 309.027344 C 1217.132812 285.832031 1209.476562 266.535156 1194.125 251.171875 C 1178.773438 235.8125 1159.835938 228.152344 1137.308594 228.152344 C 1114.785156 228.152344 1095.84375 235.8125 1080.492188 251.171875 C 1065.140625 266.535156 1057.488281 285.832031 1057.488281 309.027344 C 1057.488281 332.222656 1065.140625 351.519531 1080.492188 366.882812 Z M 1080.492188 366.882812 "/><path style=" stroke:none;fill-rule:nonzero;fill:#ffffff;fill-opacity:1;" d="M 1426.246094 443.683594 C 1388.71875 443.683594 1356.832031 430.730469 1330.546875 404.78125 C 1304.257812 378.828125 1291.136719 346.925781 1291.136719 309.027344 C 1291.136719 271.128906 1304.257812 239.226562 1330.546875 213.273438 C 1356.832031 187.324219 1388.71875 174.371094 1426.246094 174.371094 C 1463.773438 174.371094 1496.09375 187.367188 1522.207031 213.273438 C 1548.316406 239.226562 1561.351562 271.128906 1561.351562 309.027344 C 1561.351562 346.925781 1548.316406 378.828125 1522.207031 404.78125 C 1496.09375 430.730469 1464.121094 443.683594 1426.246094 443.683594 Z M 1369.429688 366.882812 C 1384.78125 382.242188 1403.71875 389.902344 1426.246094 389.902344 C 1448.769531 389.902344 1467.707031 382.242188 1483.058594 366.882812 C 1498.414062 351.519531 1506.109375 332.222656 1506.109375 309.027344 C 1506.109375 285.832031 1498.414062 266.535156 1483.058594 251.171875 C 1467.707031 235.8125 1448.769531 228.152344 1426.246094 228.152344 C 1403.71875 228.152344 1384.78125 235.8125 1369.429688 251.171875 C 1354.074219 266.535156 1346.421875 285.832031 1346.421875 309.027344 C 1346.421875 332.222656 1354.074219 351.519531 1369.429688 366.882812 Z M 1369.429688 366.882812 "/></g></svg>